<?xml version="1.0" encoding="utf-8" ?>
<!DOCTYPE svg PUBLIC "-//W3C//DTD SVG 1.1//EN" "http://www.w3.org/Graphics/SVG/1.1/DTD/svg11.dtd">
<svg height="838" version="1.1" width="1115" xmlns="http://www.w3.org/2000/svg">
<rect fill="#ffffff" height="66" stroke="#ffffff" stroke-width="1" width="128" x="606" y="422"/>
<rect fill="none" height="66" stroke="#000000" stroke-width="1" width="128" x="606" y="422"/>
<text font-family="Dialog" font-size="12" x="660" y="435">
Jeu</text>
<rect fill="#000000" height="1" stroke="#000000" stroke-width="1" width="128" x="606" y="445"/>
<rect fill="#000000" height="1" stroke="#000000" stroke-width="1" width="128" x="606" y="466"/>
<rect fill="#ffffff" height="85" stroke="#ffffff" stroke-width="1" width="175" x="350" y="414"/>
<rect fill="none" height="85" stroke="#000000" stroke-width="1" width="175" x="350" y="414"/>
<text font-family="Dialog" font-size="12" font-style="italic" x="391" y="427">
abstract Joueur</text>
<rect fill="#000000" height="1" stroke="#000000" stroke-width="1" width="175" x="350" y="437"/>
<rect fill="#000000" height="1" stroke="#000000" stroke-width="1" width="175" x="350" y="458"/>
<text font-family="Dialog" font-size="12" x="354" y="472">
public void next()</text>
<text font-family="Dialog" font-size="12" x="354" y="488">
public void estMonTour()</text>
<rect fill="#ffffff" height="66" stroke="#ffffff" stroke-width="1" width="88" x="358" y="286"/>
<rect fill="none" height="66" stroke="#000000" stroke-width="1" width="88" x="358" y="286"/>
<text font-family="Dialog" font-size="12" x="380" y="299">
Plateau</text>
<rect fill="#000000" height="1" stroke="#000000" stroke-width="1" width="88" x="358" y="309"/>
<rect fill="#000000" height="1" stroke="#000000" stroke-width="1" width="88" x="358" y="330"/>
<rect fill="#ffffff" height="67" stroke="#ffffff" stroke-width="1" width="85" x="198" y="414"/>
<rect fill="none" height="67" stroke="#000000" stroke-width="1" width="85" x="198" y="414"/>
<text font-family="Dialog" font-size="12" x="219" y="427">
Bateau</text>
<rect fill="#000000" height="1" stroke="#000000" stroke-width="1" width="85" x="198" y="437"/>
<rect fill="#000000" height="1" stroke="#000000" stroke-width="1" width="85" x="198" y="458"/>
<rect fill="#ffffff" height="72" stroke="#ffffff" stroke-width="1" width="112" x="798" y="518"/>
<rect fill="none" height="72" stroke="#000000" stroke-width="1" width="112" x="798" y="518"/>
<text font-family="Dialog" font-size="12" x="842" y="531">
Vue</text>
<rect fill="#000000" height="1" stroke="#000000" stroke-width="1" width="112" x="798" y="541"/>
<rect fill="#000000" height="1" stroke="#000000" stroke-width="1" width="112" x="798" y="565"/>
<rect fill="#ffffff" height="72" stroke="#ffffff" stroke-width="1" width="106" x="622" y="526"/>
<rect fill="none" height="72" stroke="#000000" stroke-width="1" width="106" x="622" y="526"/>
<text font-family="Dialog" font-size="12" x="643" y="539">
Controleur</text>
<rect fill="#000000" height="1" stroke="#000000" stroke-width="1" width="106" x="622" y="549"/>
<rect fill="#000000" height="1" stroke="#000000" stroke-width="1" width="106" x="622" y="573"/>
<rect fill="#ffffff" height="69" stroke="#ffffff" stroke-width="1" width="172" x="702" y="678"/>
<rect fill="none" height="69" stroke="#000000" stroke-width="1" width="172" x="702" y="678"/>
<text font-family="Dialog" font-size="12" x="771" y="691">
Menu</text>
<rect fill="#000000" height="1" stroke="#000000" stroke-width="1" width="172" x="702" y="701"/>
<rect fill="#000000" height="1" stroke="#000000" stroke-width="1" width="172" x="702" y="722"/>
<text font-family="Dialog" font-size="12" x="706" y="736">
public void newOperation()</text>
<rect fill="#ffffff" height="72" stroke="#ffffff" stroke-width="1" width="96" x="886" y="678"/>
<rect fill="none" height="72" stroke="#000000" stroke-width="1" width="96" x="886" y="678"/>
<text font-family="Dialog" font-size="12" x="901" y="691">
FenetreJeu</text>
<rect fill="#000000" height="1" stroke="#000000" stroke-width="1" width="96" x="886" y="701"/>
<rect fill="#000000" height="1" stroke="#000000" stroke-width="1" width="96" x="886" y="725"/>
<rect fill="#ffffff" height="72" stroke="#ffffff" stroke-width="1" width="104" x="318" y="526"/>
<rect fill="none" height="72" stroke="#000000" stroke-width="1" width="104" x="318" y="526"/>
<text font-family="Dialog" font-size="12" x="350" y="539">
Joueur</text>
<rect fill="#000000" height="1" stroke="#000000" stroke-width="1" width="104" x="318" y="549"/>
<rect fill="#000000" height="1" stroke="#000000" stroke-width="1" width="104" x="318" y="573"/>
<rect fill="#ffffff" height="72" stroke="#ffffff" stroke-width="1" width="104" x="430" y="526"/>
<rect fill="none" height="72" stroke="#000000" stroke-width="1" width="104" x="430" y="526"/>
<text font-family="Dialog" font-size="12" x="449" y="539">
Ordinateur</text>
<rect fill="#000000" height="1" stroke="#000000" stroke-width="1" width="104" x="430" y="549"/>
<rect fill="#000000" height="1" stroke="#000000" stroke-width="1" width="104" x="430" y="573"/>
<rect fill="#ffffff" height="66" stroke="#ffffff" stroke-width="1" width="96" x="342" y="758"/>
<rect fill="none" height="66" stroke="#000000" stroke-width="1" width="96" x="342" y="758"/>
<text font-family="Dialog" font-size="12" x="364" y="771">
Aleatoire</text>
<rect fill="#000000" height="1" stroke="#000000" stroke-width="1" width="96" x="342" y="781"/>
<rect fill="#000000" height="1" stroke="#000000" stroke-width="1" width="96" x="342" y="802"/>
<rect fill="#ffffff" height="66" stroke="#ffffff" stroke-width="1" width="96" x="446" y="758"/>
<rect fill="none" height="66" stroke="#000000" stroke-width="1" width="96" x="446" y="758"/>
<text font-family="Dialog" font-size="12" x="476" y="771">
Croise</text>
<rect fill="#000000" height="1" stroke="#000000" stroke-width="1" width="96" x="446" y="781"/>
<rect fill="#000000" height="1" stroke="#000000" stroke-width="1" width="96" x="446" y="802"/>
<polyline fill="none" points="381,526 381,498" stroke="#000000" stroke-width="1"/>
<polygon fill="#ffffff" points="381,498 388,510 374,510" stroke="#ffffff" stroke-width="1"/>
<polygon fill="none" points="381,498 388,510 374,510" stroke="#000000" stroke-width="1"/>
<polyline fill="none" points="478,526 478,498" stroke="#000000" stroke-width="1"/>
<polygon fill="#ffffff" points="478,498 485,510 471,510" stroke="#ffffff" stroke-width="1"/>
<polygon fill="none" points="478,498 485,510 471,510" stroke="#000000" stroke-width="1"/>
<polyline fill="none" points="350,446 282,446" stroke="#000000" stroke-width="1"/>
<line fill="#000000" stroke="#000000" stroke-width="1" x1="294" x2="282" y1="439" y2="446"/>
<line fill="#000000" stroke="#000000" stroke-width="1" x1="294" x2="282" y1="453" y2="446"/>
<polyline fill="none" points="397,414 397,351" stroke="#000000" stroke-width="1"/>
<line fill="#000000" stroke="#000000" stroke-width="1" x1="404" x2="397" y1="363" y2="351"/>
<line fill="#000000" stroke="#000000" stroke-width="1" x1="390" x2="397" y1="363" y2="351"/>
<polyline fill="none" points="606,462 524,462" stroke="#000000" stroke-width="1"/>
<line fill="#000000" stroke="#000000" stroke-width="1" x1="536" x2="524" y1="455" y2="462"/>
<line fill="#000000" stroke="#000000" stroke-width="1" x1="536" x2="524" y1="469" y2="462"/>
<polyline fill="none" points="814,678 814,589" stroke="#000000" stroke-width="1"/>
<polygon fill="#ffffff" points="814,589 821,601 807,601" stroke="#ffffff" stroke-width="1"/>
<polygon fill="none" points="814,589 821,601 807,601" stroke="#000000" stroke-width="1"/>
<polyline fill="none" points="902,678 902,589" stroke="#000000" stroke-width="1"/>
<polygon fill="#ffffff" points="902,589 909,601 895,601" stroke="#ffffff" stroke-width="1"/>
<polygon fill="none" points="902,589 909,601 895,601" stroke="#000000" stroke-width="1"/>
<polyline fill="none" points="670,526 670,487" stroke="#000000" stroke-width="1"/>
<line fill="#000000" stroke="#000000" stroke-width="1" x1="677" x2="670" y1="499" y2="487"/>
<line fill="#000000" stroke="#000000" stroke-width="1" x1="663" x2="670" y1="499" y2="487"/>
<rect fill="#ffffff" height="67" stroke="#ffffff" stroke-width="1" width="111" x="990" y="422"/>
<rect fill="none" height="67" stroke="#000000" stroke-width="1" width="111" x="990" y="422"/>
<text font-family="Dialog" font-size="12" x="1012" y="435">
Observable</text>
<rect fill="#000000" height="1" stroke="#000000" stroke-width="1" width="111" x="990" y="445"/>
<rect fill="#000000" height="1" stroke="#000000" stroke-width="1" width="111" x="990" y="466"/>
<polyline fill="none" points="733,454 990,454" stroke="#000000" stroke-width="1"/>
<polygon fill="#ffffff" points="990,454 978,461 978,447" stroke="#ffffff" stroke-width="1"/>
<polygon fill="none" points="990,454 978,461 978,447" stroke="#000000" stroke-width="1"/>
<rect fill="#ffffff" height="64" stroke="#ffffff" stroke-width="1" width="102" x="998" y="518"/>
<rect fill="none" height="64" stroke="#000000" stroke-width="1" width="102" x="998" y="518"/>
<text font-family="Dialog" font-size="12" x="1022" y="550">
Observer</text>
<text font-family="Dialog" font-size="12" x="1002" y="532">
&lt;&lt;interface&gt;&gt;</text>
<rect fill="#000000" height="1" stroke="#000000" stroke-width="1" width="102" x="998" y="560"/>
<line fill="#000000" stroke="#000000" stroke-width="1" x1="909" x2="914" y1="549" y2="549"/>
<line fill="#000000" stroke="#000000" stroke-width="1" x1="919" x2="924" y1="549" y2="549"/>
<line fill="#000000" stroke="#000000" stroke-width="1" x1="929" x2="934" y1="549" y2="549"/>
<line fill="#000000" stroke="#000000" stroke-width="1" x1="939" x2="944" y1="549" y2="549"/>
<line fill="#000000" stroke="#000000" stroke-width="1" x1="949" x2="954" y1="549" y2="549"/>
<line fill="#000000" stroke="#000000" stroke-width="1" x1="959" x2="964" y1="549" y2="549"/>
<line fill="#000000" stroke="#000000" stroke-width="1" x1="969" x2="974" y1="549" y2="549"/>
<line fill="#000000" stroke="#000000" stroke-width="1" x1="979" x2="984" y1="549" y2="549"/>
<line fill="#000000" stroke="#000000" stroke-width="1" x1="989" x2="994" y1="549" y2="549"/>
<polygon fill="#ffffff" points="998,549 986,556 986,542" stroke="#ffffff" stroke-width="1"/>
<polygon fill="none" points="998,549 986,556 986,542" stroke="#000000" stroke-width="1"/>
<text font-family="Dialog" font-size="12" x="914" y="536">
&lt;&lt;realize&gt;&gt;</text>
<polyline fill="none" points="1046,518 1046,488" stroke="#000000" stroke-width="1"/>
<polyline fill="none" points="727,558 798,558" stroke="#000000" stroke-width="1"/>
<rect fill="#ffffff" height="67" stroke="#ffffff" stroke-width="1" width="175" x="390" y="646"/>
<rect fill="none" height="67" stroke="#000000" stroke-width="1" width="175" x="390" y="646"/>
<text font-family="Dialog" font-size="12" x="464" y="678">
Tirer</text>
<text font-family="Dialog" font-size="12" x="431" y="660">
&lt;&lt;interface&gt;&gt;</text>
<rect fill="#000000" height="1" stroke="#000000" stroke-width="1" width="175" x="390" y="688"/>
<text font-family="Dialog" font-size="12" x="394" y="702">
public void Tirer()</text>
<polyline fill="none" points="478,597 478,646" stroke="#000000" stroke-width="1"/>
<line fill="#000000" stroke="#000000" stroke-width="1" x1="471" x2="478" y1="634" y2="646"/>
<line fill="#000000" stroke="#000000" stroke-width="1" x1="485" x2="478" y1="634" y2="646"/>
<line fill="#000000" stroke="#000000" stroke-width="1" x1="414" x2="414" y1="758" y2="753"/>
<line fill="#000000" stroke="#000000" stroke-width="1" x1="414" x2="414" y1="748" y2="743"/>
<line fill="#000000" stroke="#000000" stroke-width="1" x1="414" x2="414" y1="738" y2="733"/>
<line fill="#000000" stroke="#000000" stroke-width="1" x1="414" x2="414" y1="728" y2="723"/>
<line fill="#000000" stroke="#000000" stroke-width="1" x1="414" x2="414" y1="718" y2="713"/>
<polygon fill="#ffffff" points="414,712 421,724 407,724" stroke="#ffffff" stroke-width="1"/>
<polygon fill="none" points="414,712 421,724 407,724" stroke="#000000" stroke-width="1"/>
<text font-family="Dialog" font-size="12" x="328" y="747">
&lt;&lt;realize&gt;&gt;</text>
<line fill="#000000" stroke="#000000" stroke-width="1" x1="461" x2="461" y1="758" y2="753"/>
<line fill="#000000" stroke="#000000" stroke-width="1" x1="461" x2="461" y1="748" y2="743"/>
<line fill="#000000" stroke="#000000" stroke-width="1" x1="461" x2="461" y1="738" y2="733"/>
<line fill="#000000" stroke="#000000" stroke-width="1" x1="461" x2="461" y1="728" y2="723"/>
<line fill="#000000" stroke="#000000" stroke-width="1" x1="461" x2="461" y1="718" y2="713"/>
<polygon fill="#ffffff" points="461,712 468,724 454,724" stroke="#ffffff" stroke-width="1"/>
<polygon fill="none" points="461,712 468,724 454,724" stroke="#000000" stroke-width="1"/>
<text font-family="Dialog" font-size="12" x="469" y="747">
&lt;&lt;realize&gt;&gt;</text>
<rect fill="#ffffff" height="69" stroke="#ffffff" stroke-width="1" width="146" x="166" y="166"/>
<rect fill="none" height="69" stroke="#000000" stroke-width="1" width="146" x="166" y="166"/>
<text font-family="Dialog" font-size="12" font-style="italic" x="189" y="179">
abstract Epoque</text>
<rect fill="#000000" height="1" stroke="#000000" stroke-width="1" width="146" x="166" y="189"/>
<text font-family="Dialog" font-size="12" x="170" y="203">
public String siecle</text>
<rect fill="#000000" height="1" stroke="#000000" stroke-width="1" width="146" x="166" y="213"/>
<rect fill="#ffffff" height="67" stroke="#ffffff" stroke-width="1" width="66" x="158" y="262"/>
<rect fill="none" height="67" stroke="#000000" stroke-width="1" width="66" x="158" y="262"/>
<text font-family="Dialog" font-size="12" x="179" y="275">
EP1</text>
<rect fill="#000000" height="1" stroke="#000000" stroke-width="1" width="66" x="158" y="285"/>
<rect fill="#000000" height="1" stroke="#000000" stroke-width="1" width="66" x="158" y="306"/>
<rect fill="#ffffff" height="67" stroke="#ffffff" stroke-width="1" width="66" x="254" y="278"/>
<rect fill="none" height="67" stroke="#000000" stroke-width="1" width="66" x="254" y="278"/>
<text font-family="Dialog" font-size="12" x="275" y="291">
EP2</text>
<rect fill="#000000" height="1" stroke="#000000" stroke-width="1" width="66" x="254" y="301"/>
<rect fill="#000000" height="1" stroke="#000000" stroke-width="1" width="66" x="254" y="322"/>
<polyline fill="none" points="191,262 191,234" stroke="#000000" stroke-width="1"/>
<polygon fill="#ffffff" points="191,234 198,246 184,246" stroke="#ffffff" stroke-width="1"/>
<polygon fill="none" points="191,234 198,246 184,246" stroke="#000000" stroke-width="1"/>
<polyline fill="none" points="286,278 286,234" stroke="#000000" stroke-width="1"/>
<polygon fill="#ffffff" points="286,234 293,246 279,246" stroke="#ffffff" stroke-width="1"/>
<polygon fill="none" points="286,234 293,246 279,246" stroke="#000000" stroke-width="1"/>
<rect fill="#ffffff" height="67" stroke="#ffffff" stroke-width="1" width="66" x="62" y="374"/>
<rect fill="none" height="67" stroke="#000000" stroke-width="1" width="66" x="62" y="374"/>
<text font-family="Dialog" font-size="12" x="73" y="387">
BatEp1</text>
<rect fill="#000000" height="1" stroke="#000000" stroke-width="1" width="66" x="62" y="397"/>
<rect fill="#000000" height="1" stroke="#000000" stroke-width="1" width="66" x="62" y="418"/>
<line fill="#000000" stroke="#000000" stroke-width="1" x1="190" x2="190" y1="328" y2="333"/>
<line fill="#000000" stroke="#000000" stroke-width="1" x1="190" x2="190" y1="338" y2="342"/>
<line fill="#000000" stroke="#000000" stroke-width="1" x1="190" x2="185" y1="342" y2="342"/>
<line fill="#000000" stroke="#000000" stroke-width="1" x1="180" x2="175" y1="342" y2="342"/>
<line fill="#000000" stroke="#000000" stroke-width="1" x1="170" x2="165" y1="342" y2="342"/>
<line fill="#000000" stroke="#000000" stroke-width="1" x1="160" x2="155" y1="342" y2="342"/>
<line fill="#000000" stroke="#000000" stroke-width="1" x1="150" x2="145" y1="342" y2="342"/>
<line fill="#000000" stroke="#000000" stroke-width="1" x1="140" x2="135" y1="342" y2="342"/>
<line fill="#000000" stroke="#000000" stroke-width="1" x1="130" x2="125" y1="342" y2="342"/>
<line fill="#000000" stroke="#000000" stroke-width="1" x1="120" x2="115" y1="342" y2="342"/>
<line fill="#000000" stroke="#000000" stroke-width="1" x1="110" x2="105" y1="342" y2="342"/>
<line fill="#000000" stroke="#000000" stroke-width="1" x1="100" x2="95" y1="342" y2="342"/>
<line fill="#000000" stroke="#000000" stroke-width="1" x1="94" x2="94" y1="342" y2="347"/>
<line fill="#000000" stroke="#000000" stroke-width="1" x1="94" x2="94" y1="352" y2="357"/>
<line fill="#000000" stroke="#000000" stroke-width="1" x1="94" x2="94" y1="362" y2="367"/>
<line fill="#000000" stroke="#000000" stroke-width="1" x1="94" x2="94" y1="372" y2="374"/>
<line fill="#000000" stroke="#000000" stroke-width="1" x1="87" x2="94" y1="362" y2="374"/>
<line fill="#000000" stroke="#000000" stroke-width="1" x1="101" x2="94" y1="362" y2="374"/>
<rect fill="#ffffff" height="67" stroke="#ffffff" stroke-width="1" width="66" x="62" y="454"/>
<rect fill="none" height="67" stroke="#000000" stroke-width="1" width="66" x="62" y="454"/>
<text font-family="Dialog" font-size="12" x="73" y="467">
BatEp2</text>
<rect fill="#000000" height="1" stroke="#000000" stroke-width="1" width="66" x="62" y="477"/>
<rect fill="#000000" height="1" stroke="#000000" stroke-width="1" width="66" x="62" y="498"/>
<line fill="#000000" stroke="#000000" stroke-width="1" x1="286" x2="286" y1="344" y2="349"/>
<line fill="#000000" stroke="#000000" stroke-width="1" x1="286" x2="286" y1="354" y2="358"/>
<line fill="#000000" stroke="#000000" stroke-width="1" x1="286" x2="281" y1="358" y2="358"/>
<line fill="#000000" stroke="#000000" stroke-width="1" x1="276" x2="271" y1="358" y2="358"/>
<line fill="#000000" stroke="#000000" stroke-width="1" x1="266" x2="261" y1="358" y2="358"/>
<line fill="#000000" stroke="#000000" stroke-width="1" x1="256" x2="251" y1="358" y2="358"/>
<line fill="#000000" stroke="#000000" stroke-width="1" x1="246" x2="241" y1="358" y2="358"/>
<line fill="#000000" stroke="#000000" stroke-width="1" x1="236" x2="231" y1="358" y2="358"/>
<line fill="#000000" stroke="#000000" stroke-width="1" x1="226" x2="221" y1="358" y2="358"/>
<line fill="#000000" stroke="#000000" stroke-width="1" x1="216" x2="211" y1="358" y2="358"/>
<line fill="#000000" stroke="#000000" stroke-width="1" x1="206" x2="201" y1="358" y2="358"/>
<line fill="#000000" stroke="#000000" stroke-width="1" x1="196" x2="191" y1="358" y2="358"/>
<line fill="#000000" stroke="#000000" stroke-width="1" x1="186" x2="181" y1="358" y2="358"/>
<line fill="#000000" stroke="#000000" stroke-width="1" x1="176" x2="171" y1="358" y2="358"/>
<line fill="#000000" stroke="#000000" stroke-width="1" x1="166" x2="161" y1="358" y2="358"/>
<line fill="#000000" stroke="#000000" stroke-width="1" x1="156" x2="151" y1="358" y2="358"/>
<line fill="#000000" stroke="#000000" stroke-width="1" x1="146" x2="141" y1="358" y2="358"/>
<line fill="#000000" stroke="#000000" stroke-width="1" x1="136" x2="131" y1="358" y2="358"/>
<line fill="#000000" stroke="#000000" stroke-width="1" x1="126" x2="121" y1="358" y2="358"/>
<line fill="#000000" stroke="#000000" stroke-width="1" x1="116" x2="111" y1="358" y2="358"/>
<line fill="#000000" stroke="#000000" stroke-width="1" x1="106" x2="101" y1="358" y2="358"/>
<line fill="#000000" stroke="#000000" stroke-width="1" x1="96" x2="91" y1="358" y2="358"/>
<line fill="#000000" stroke="#000000" stroke-width="1" x1="86" x2="81" y1="358" y2="358"/>
<line fill="#000000" stroke="#000000" stroke-width="1" x1="76" x2="71" y1="358" y2="358"/>
<line fill="#000000" stroke="#000000" stroke-width="1" x1="66" x2="61" y1="358" y2="358"/>
<line fill="#000000" stroke="#000000" stroke-width="1" x1="56" x2="51" y1="358" y2="358"/>
<line fill="#000000" stroke="#000000" stroke-width="1" x1="46" x2="41" y1="358" y2="358"/>
<line fill="#000000" stroke="#000000" stroke-width="1" x1="36" x2="31" y1="358" y2="358"/>
<line fill="#000000" stroke="#000000" stroke-width="1" x1="26" x2="21" y1="358" y2="358"/>
<line fill="#000000" stroke="#000000" stroke-width="1" x1="16" x2="14" y1="358" y2="358"/>
<line fill="#000000" stroke="#000000" stroke-width="1" x1="14" x2="14" y1="358" y2="363"/>
<line fill="#000000" stroke="#000000" stroke-width="1" x1="14" x2="14" y1="368" y2="373"/>
<line fill="#000000" stroke="#000000" stroke-width="1" x1="14" x2="14" y1="378" y2="383"/>
<line fill="#000000" stroke="#000000" stroke-width="1" x1="14" x2="14" y1="388" y2="393"/>
<line fill="#000000" stroke="#000000" stroke-width="1" x1="14" x2="14" y1="398" y2="403"/>
<line fill="#000000" stroke="#000000" stroke-width="1" x1="14" x2="14" y1="408" y2="413"/>
<line fill="#000000" stroke="#000000" stroke-width="1" x1="14" x2="14" y1="418" y2="423"/>
<line fill="#000000" stroke="#000000" stroke-width="1" x1="14" x2="14" y1="428" y2="433"/>
<line fill="#000000" stroke="#000000" stroke-width="1" x1="14" x2="14" y1="438" y2="443"/>
<line fill="#000000" stroke="#000000" stroke-width="1" x1="14" x2="14" y1="448" y2="453"/>
<line fill="#000000" stroke="#000000" stroke-width="1" x1="14" x2="14" y1="458" y2="463"/>
<line fill="#000000" stroke="#000000" stroke-width="1" x1="14" x2="14" y1="468" y2="473"/>
<line fill="#000000" stroke="#000000" stroke-width="1" x1="14" x2="14" y1="478" y2="483"/>
<line fill="#000000" stroke="#000000" stroke-width="1" x1="14" x2="14" y1="488" y2="493"/>
<line fill="#000000" stroke="#000000" stroke-width="1" x1="14" x2="19" y1="494" y2="494"/>
<line fill="#000000" stroke="#000000" stroke-width="1" x1="24" x2="29" y1="494" y2="494"/>
<line fill="#000000" stroke="#000000" stroke-width="1" x1="34" x2="39" y1="494" y2="494"/>
<line fill="#000000" stroke="#000000" stroke-width="1" x1="44" x2="49" y1="494" y2="494"/>
<line fill="#000000" stroke="#000000" stroke-width="1" x1="54" x2="59" y1="494" y2="494"/>
<line fill="#000000" stroke="#000000" stroke-width="1" x1="50" x2="62" y1="501" y2="494"/>
<line fill="#000000" stroke="#000000" stroke-width="1" x1="50" x2="62" y1="487" y2="494"/>
<polyline fill="none" points="127,430 198,430" stroke="#000000" stroke-width="1"/>
<polygon fill="#ffffff" points="198,430 186,437 186,423" stroke="#ffffff" stroke-width="1"/>
<polygon fill="none" points="198,430 186,437 186,423" stroke="#000000" stroke-width="1"/>
<polyline fill="none" points="127,470 198,470" stroke="#000000" stroke-width="1"/>
<polygon fill="#ffffff" points="198,470 186,477 186,463" stroke="#ffffff" stroke-width="1"/>
<polygon fill="none" points="198,470 186,477 186,463" stroke="#000000" stroke-width="1"/>
<rect fill="#ffffff" height="67" stroke="#ffffff" stroke-width="1" width="66" x="62" y="550"/>
<rect fill="none" height="67" stroke="#000000" stroke-width="1" width="66" x="62" y="550"/>
<text font-family="Dialog" font-size="12" x="84" y="563">
Tire</text>
<rect fill="#000000" height="1" stroke="#000000" stroke-width="1" width="66" x="62" y="573"/>
<rect fill="#000000" height="1" stroke="#000000" stroke-width="1" width="66" x="62" y="594"/>
<line fill="#000000" stroke="#000000" stroke-width="1" x1="238" x2="238" y1="480" y2="485"/>
<line fill="#000000" stroke="#000000" stroke-width="1" x1="238" x2="238" y1="490" y2="495"/>
<line fill="#000000" stroke="#000000" stroke-width="1" x1="238" x2="238" y1="500" y2="505"/>
<line fill="#000000" stroke="#000000" stroke-width="1" x1="238" x2="238" y1="510" y2="515"/>
<line fill="#000000" stroke="#000000" stroke-width="1" x1="238" x2="238" y1="520" y2="525"/>
<line fill="#000000" stroke="#000000" stroke-width="1" x1="238" x2="238" y1="530" y2="535"/>
<line fill="#000000" stroke="#000000" stroke-width="1" x1="238" x2="238" y1="540" y2="545"/>
<line fill="#000000" stroke="#000000" stroke-width="1" x1="238" x2="238" y1="550" y2="555"/>
<line fill="#000000" stroke="#000000" stroke-width="1" x1="238" x2="238" y1="560" y2="565"/>
<line fill="#000000" stroke="#000000" stroke-width="1" x1="238" x2="238" y1="570" y2="575"/>
<line fill="#000000" stroke="#000000" stroke-width="1" x1="238" x2="238" y1="580" y2="585"/>
<line fill="#000000" stroke="#000000" stroke-width="1" x1="238" x2="233" y1="590" y2="590"/>
<line fill="#000000" stroke="#000000" stroke-width="1" x1="228" x2="223" y1="590" y2="590"/>
<line fill="#000000" stroke="#000000" stroke-width="1" x1="218" x2="213" y1="590" y2="590"/>
<line fill="#000000" stroke="#000000" stroke-width="1" x1="208" x2="203" y1="590" y2="590"/>
<line fill="#000000" stroke="#000000" stroke-width="1" x1="198" x2="193" y1="590" y2="590"/>
<line fill="#000000" stroke="#000000" stroke-width="1" x1="188" x2="183" y1="590" y2="590"/>
<line fill="#000000" stroke="#000000" stroke-width="1" x1="178" x2="173" y1="590" y2="590"/>
<line fill="#000000" stroke="#000000" stroke-width="1" x1="168" x2="163" y1="590" y2="590"/>
<line fill="#000000" stroke="#000000" stroke-width="1" x1="158" x2="153" y1="590" y2="590"/>
<line fill="#000000" stroke="#000000" stroke-width="1" x1="148" x2="143" y1="590" y2="590"/>
<line fill="#000000" stroke="#000000" stroke-width="1" x1="138" x2="133" y1="590" y2="590"/>
<line fill="#000000" stroke="#000000" stroke-width="1" x1="128" x2="127" y1="590" y2="590"/>
<line fill="#000000" stroke="#000000" stroke-width="1" x1="139" x2="127" y1="583" y2="590"/>
<line fill="#000000" stroke="#000000" stroke-width="1" x1="139" x2="127" y1="597" y2="590"/>
<rect fill="#ffffff" height="67" stroke="#ffffff" stroke-width="1" width="160" x="606" y="278"/>
<rect fill="none" height="67" stroke="#000000" stroke-width="1" width="160" x="606" y="278"/>
<text font-family="Dialog" font-size="12" font-style="italic" x="614" y="291">
abstract DaoAbsFactoty</text>
<rect fill="#000000" height="1" stroke="#000000" stroke-width="1" width="160" x="606" y="301"/>
<rect fill="#000000" height="1" stroke="#000000" stroke-width="1" width="160" x="606" y="322"/>
<rect fill="#ffffff" height="67" stroke="#ffffff" stroke-width="1" width="104" x="878" y="222"/>
<rect fill="none" height="67" stroke="#000000" stroke-width="1" width="104" x="878" y="222"/>
<text font-family="Dialog" font-size="12" x="884" y="235">
DaoXmlFactory</text>
<rect fill="#000000" height="1" stroke="#000000" stroke-width="1" width="104" x="878" y="245"/>
<rect fill="#000000" height="1" stroke="#000000" stroke-width="1" width="104" x="878" y="266"/>
<rect fill="#ffffff" height="67" stroke="#ffffff" stroke-width="1" width="100" x="878" y="350"/>
<rect fill="none" height="67" stroke="#000000" stroke-width="1" width="100" x="878" y="350"/>
<text font-family="Dialog" font-size="12" x="884" y="363">
DaoSqlFactory</text>
<rect fill="#000000" height="1" stroke="#000000" stroke-width="1" width="100" x="878" y="373"/>
<rect fill="#000000" height="1" stroke="#000000" stroke-width="1" width="100" x="878" y="394"/>
<polyline fill="none" points="878,254 822,254 822,302 765,302" stroke="#000000" stroke-width="1"/>
<polygon fill="#ffffff" points="765,302 777,295 777,309" stroke="#ffffff" stroke-width="1"/>
<polygon fill="none" points="765,302 777,295 777,309" stroke="#000000" stroke-width="1"/>
<polyline fill="none" points="878,382 822,382 822,326 765,326" stroke="#000000" stroke-width="1"/>
<polygon fill="#ffffff" points="765,326 777,319 777,333" stroke="#ffffff" stroke-width="1"/>
<polygon fill="none" points="765,326 777,319 777,333" stroke="#000000" stroke-width="1"/>
<line fill="#000000" stroke="#000000" stroke-width="1" x1="670" x2="670" y1="422" y2="417"/>
<line fill="#000000" stroke="#000000" stroke-width="1" x1="670" x2="670" y1="412" y2="407"/>
<line fill="#000000" stroke="#000000" stroke-width="1" x1="670" x2="670" y1="402" y2="397"/>
<line fill="#000000" stroke="#000000" stroke-width="1" x1="670" x2="670" y1="392" y2="387"/>
<line fill="#000000" stroke="#000000" stroke-width="1" x1="670" x2="670" y1="382" y2="377"/>
<line fill="#000000" stroke="#000000" stroke-width="1" x1="670" x2="670" y1="372" y2="367"/>
<line fill="#000000" stroke="#000000" stroke-width="1" x1="670" x2="670" y1="362" y2="357"/>
<line fill="#000000" stroke="#000000" stroke-width="1" x1="670" x2="670" y1="352" y2="347"/>
<line fill="#000000" stroke="#000000" stroke-width="1" x1="677" x2="670" y1="356" y2="344"/>
<line fill="#000000" stroke="#000000" stroke-width="1" x1="663" x2="670" y1="356" y2="344"/>
<rect fill="#ffffff" height="80" stroke="#ffffff" stroke-width="1" width="144" x="614" y="54"/>
<rect fill="none" height="80" stroke="#000000" stroke-width="1" width="144" x="614" y="54"/>
<text font-family="Dialog" font-size="12" font-style="italic" x="646" y="67">
abstract DAO</text>
<rect fill="#000000" height="1" stroke="#000000" stroke-width="1" width="144" x="614" y="77"/>
<rect fill="#000000" height="1" stroke="#000000" stroke-width="1" width="144" x="614" y="105"/>
<rect fill="#ffffff" height="66" stroke="#ffffff" stroke-width="1" width="104" x="878" y="14"/>
<rect fill="none" height="66" stroke="#000000" stroke-width="1" width="104" x="878" y="14"/>
<text font-family="Dialog" font-size="12" x="907" y="27">
XmlDao</text>
<rect fill="#000000" height="1" stroke="#000000" stroke-width="1" width="104" x="878" y="37"/>
<rect fill="#000000" height="1" stroke="#000000" stroke-width="1" width="104" x="878" y="58"/>
<rect fill="#ffffff" height="72" stroke="#ffffff" stroke-width="1" width="104" x="878" y="118"/>
<rect fill="none" height="72" stroke="#000000" stroke-width="1" width="104" x="878" y="118"/>
<text font-family="Dialog" font-size="12" x="909" y="131">
SqlDao</text>
<rect fill="#000000" height="1" stroke="#000000" stroke-width="1" width="104" x="878" y="141"/>
<rect fill="#000000" height="1" stroke="#000000" stroke-width="1" width="104" x="878" y="165"/>
<polyline fill="none" points="878,158 822,158 822,110 757,110" stroke="#000000" stroke-width="1"/>
<polygon fill="#ffffff" points="757,110 769,103 769,117" stroke="#ffffff" stroke-width="1"/>
<polygon fill="none" points="757,110 769,103 769,117" stroke="#000000" stroke-width="1"/>
<polyline fill="none" points="878,54 822,54 822,94 757,94" stroke="#000000" stroke-width="1"/>
<polygon fill="#ffffff" points="757,94 769,87 769,101" stroke="#ffffff" stroke-width="1"/>
<polygon fill="none" points="757,94 769,87 769,101" stroke="#000000" stroke-width="1"/>
<line fill="#000000" stroke="#000000" stroke-width="1" x1="981" x2="986" y1="262" y2="262"/>
<line fill="#000000" stroke="#000000" stroke-width="1" x1="991" x2="996" y1="262" y2="262"/>
<line fill="#000000" stroke="#000000" stroke-width="1" x1="1001" x2="1006" y1="262" y2="262"/>
<line fill="#000000" stroke="#000000" stroke-width="1" x1="1011" x2="1016" y1="262" y2="262"/>
<line fill="#000000" stroke="#000000" stroke-width="1" x1="1021" x2="1026" y1="262" y2="262"/>
<line fill="#000000" stroke="#000000" stroke-width="1" x1="1030" x2="1030" y1="262" y2="257"/>
<line fill="#000000" stroke="#000000" stroke-width="1" x1="1030" x2="1030" y1="252" y2="247"/>
<line fill="#000000" stroke="#000000" stroke-width="1" x1="1030" x2="1030" y1="242" y2="237"/>
<line fill="#000000" stroke="#000000" stroke-width="1" x1="1030" x2="1030" y1="232" y2="227"/>
<line fill="#000000" stroke="#000000" stroke-width="1" x1="1030" x2="1030" y1="222" y2="217"/>
<line fill="#000000" stroke="#000000" stroke-width="1" x1="1030" x2="1030" y1="212" y2="207"/>
<line fill="#000000" stroke="#000000" stroke-width="1" x1="1030" x2="1030" y1="202" y2="197"/>
<line fill="#000000" stroke="#000000" stroke-width="1" x1="1030" x2="1030" y1="192" y2="187"/>
<line fill="#000000" stroke="#000000" stroke-width="1" x1="1030" x2="1030" y1="182" y2="177"/>
<line fill="#000000" stroke="#000000" stroke-width="1" x1="1030" x2="1030" y1="172" y2="167"/>
<line fill="#000000" stroke="#000000" stroke-width="1" x1="1030" x2="1030" y1="162" y2="157"/>
<line fill="#000000" stroke="#000000" stroke-width="1" x1="1030" x2="1030" y1="152" y2="147"/>
<line fill="#000000" stroke="#000000" stroke-width="1" x1="1030" x2="1030" y1="142" y2="137"/>
<line fill="#000000" stroke="#000000" stroke-width="1" x1="1030" x2="1030" y1="132" y2="127"/>
<line fill="#000000" stroke="#000000" stroke-width="1" x1="1030" x2="1030" y1="122" y2="117"/>
<line fill="#000000" stroke="#000000" stroke-width="1" x1="1030" x2="1030" y1="112" y2="107"/>
<line fill="#000000" stroke="#000000" stroke-width="1" x1="1030" x2="1030" y1="102" y2="97"/>
<line fill="#000000" stroke="#000000" stroke-width="1" x1="1030" x2="1030" y1="92" y2="87"/>
<line fill="#000000" stroke="#000000" stroke-width="1" x1="1030" x2="1030" y1="82" y2="77"/>
<line fill="#000000" stroke="#000000" stroke-width="1" x1="1030" x2="1030" y1="72" y2="67"/>
<line fill="#000000" stroke="#000000" stroke-width="1" x1="1030" x2="1030" y1="62" y2="57"/>
<line fill="#000000" stroke="#000000" stroke-width="1" x1="1030" x2="1030" y1="52" y2="47"/>
<line fill="#000000" stroke="#000000" stroke-width="1" x1="1030" x2="1025" y1="46" y2="46"/>
<line fill="#000000" stroke="#000000" stroke-width="1" x1="1020" x2="1015" y1="46" y2="46"/>
<line fill="#000000" stroke="#000000" stroke-width="1" x1="1010" x2="1005" y1="46" y2="46"/>
<line fill="#000000" stroke="#000000" stroke-width="1" x1="1000" x2="995" y1="46" y2="46"/>
<line fill="#000000" stroke="#000000" stroke-width="1" x1="990" x2="985" y1="46" y2="46"/>
<line fill="#000000" stroke="#000000" stroke-width="1" x1="993" x2="981" y1="39" y2="46"/>
<line fill="#000000" stroke="#000000" stroke-width="1" x1="993" x2="981" y1="53" y2="46"/>
<line fill="#000000" stroke="#000000" stroke-width="1" x1="977" x2="982" y1="390" y2="390"/>
<line fill="#000000" stroke="#000000" stroke-width="1" x1="987" x2="992" y1="390" y2="390"/>
<line fill="#000000" stroke="#000000" stroke-width="1" x1="997" x2="1002" y1="390" y2="390"/>
<line fill="#000000" stroke="#000000" stroke-width="1" x1="1007" x2="1012" y1="390" y2="390"/>
<line fill="#000000" stroke="#000000" stroke-width="1" x1="1017" x2="1022" y1="390" y2="390"/>
<line fill="#000000" stroke="#000000" stroke-width="1" x1="1027" x2="1032" y1="390" y2="390"/>
<line fill="#000000" stroke="#000000" stroke-width="1" x1="1037" x2="1042" y1="390" y2="390"/>
<line fill="#000000" stroke="#000000" stroke-width="1" x1="1047" x2="1052" y1="390" y2="390"/>
<line fill="#000000" stroke="#000000" stroke-width="1" x1="1057" x2="1062" y1="390" y2="390"/>
<line fill="#000000" stroke="#000000" stroke-width="1" x1="1062" x2="1062" y1="390" y2="385"/>
<line fill="#000000" stroke="#000000" stroke-width="1" x1="1062" x2="1062" y1="380" y2="375"/>
<line fill="#000000" stroke="#000000" stroke-width="1" x1="1062" x2="1062" y1="370" y2="365"/>
<line fill="#000000" stroke="#000000" stroke-width="1" x1="1062" x2="1062" y1="360" y2="355"/>
<line fill="#000000" stroke="#000000" stroke-width="1" x1="1062" x2="1062" y1="350" y2="345"/>
<line fill="#000000" stroke="#000000" stroke-width="1" x1="1062" x2="1062" y1="340" y2="335"/>
<line fill="#000000" stroke="#000000" stroke-width="1" x1="1062" x2="1062" y1="330" y2="325"/>
<line fill="#000000" stroke="#000000" stroke-width="1" x1="1062" x2="1062" y1="320" y2="315"/>
<line fill="#000000" stroke="#000000" stroke-width="1" x1="1062" x2="1062" y1="310" y2="305"/>
<line fill="#000000" stroke="#000000" stroke-width="1" x1="1062" x2="1062" y1="300" y2="295"/>
<line fill="#000000" stroke="#000000" stroke-width="1" x1="1062" x2="1062" y1="290" y2="285"/>
<line fill="#000000" stroke="#000000" stroke-width="1" x1="1062" x2="1062" y1="280" y2="275"/>
<line fill="#000000" stroke="#000000" stroke-width="1" x1="1062" x2="1062" y1="270" y2="265"/>
<line fill="#000000" stroke="#000000" stroke-width="1" x1="1062" x2="1062" y1="260" y2="255"/>
<line fill="#000000" stroke="#000000" stroke-width="1" x1="1062" x2="1062" y1="250" y2="245"/>
<line fill="#000000" stroke="#000000" stroke-width="1" x1="1062" x2="1062" y1="240" y2="235"/>
<line fill="#000000" stroke="#000000" stroke-width="1" x1="1062" x2="1062" y1="230" y2="225"/>
<line fill="#000000" stroke="#000000" stroke-width="1" x1="1062" x2="1062" y1="220" y2="215"/>
<line fill="#000000" stroke="#000000" stroke-width="1" x1="1062" x2="1062" y1="210" y2="205"/>
<line fill="#000000" stroke="#000000" stroke-width="1" x1="1062" x2="1062" y1="200" y2="195"/>
<line fill="#000000" stroke="#000000" stroke-width="1" x1="1062" x2="1062" y1="190" y2="185"/>
<line fill="#000000" stroke="#000000" stroke-width="1" x1="1062" x2="1062" y1="180" y2="175"/>
<line fill="#000000" stroke="#000000" stroke-width="1" x1="1062" x2="1062" y1="170" y2="165"/>
<line fill="#000000" stroke="#000000" stroke-width="1" x1="1062" x2="1062" y1="160" y2="155"/>
<line fill="#000000" stroke="#000000" stroke-width="1" x1="1062" x2="1057" y1="150" y2="150"/>
<line fill="#000000" stroke="#000000" stroke-width="1" x1="1052" x2="1047" y1="150" y2="150"/>
<line fill="#000000" stroke="#000000" stroke-width="1" x1="1042" x2="1037" y1="150" y2="150"/>
<line fill="#000000" stroke="#000000" stroke-width="1" x1="1032" x2="1027" y1="150" y2="150"/>
<line fill="#000000" stroke="#000000" stroke-width="1" x1="1022" x2="1017" y1="150" y2="150"/>
<line fill="#000000" stroke="#000000" stroke-width="1" x1="1012" x2="1007" y1="150" y2="150"/>
<line fill="#000000" stroke="#000000" stroke-width="1" x1="1002" x2="997" y1="150" y2="150"/>
<line fill="#000000" stroke="#000000" stroke-width="1" x1="992" x2="987" y1="150" y2="150"/>
<line fill="#000000" stroke="#000000" stroke-width="1" x1="982" x2="981" y1="150" y2="150"/>
<line fill="#000000" stroke="#000000" stroke-width="1" x1="993" x2="981" y1="143" y2="150"/>
<line fill="#000000" stroke="#000000" stroke-width="1" x1="993" x2="981" y1="157" y2="150"/>
</svg>
